<svg width="30" height="30" xmlns="http://www.w3.org/2000/svg"><path d="M30 15c0-8.27-6.729-15-15-15S0 6.73 0 15c0 4.23 1.767 8.048 4.592 10.778a.915.915 0 00.236.215C7.505 28.47 11.073 30 15 30c3.927 0 7.495-1.529 10.172-4.007a.915.915 0 00.236-.215C28.233 23.048 30 19.23 30 15zM15 1.875c7.238 0 13.125 5.888 13.125 13.125a13.05 13.05 0 01-2.838 8.126c-.813-2.622-3.134-4.675-6.285-5.62a6.819 6.819 0 002.84-5.53c0-3.768-3.069-6.833-6.842-6.833-3.773 0-6.842 3.065-6.842 6.833a6.819 6.819 0 002.84 5.53c-3.15.945-5.472 2.998-6.285 5.62A13.05 13.05 0 011.875 15C1.875 7.763 7.762 1.875 15 1.875zm-4.967 10.1a4.968 4.968 0 019.934 0 4.968 4.968 0 01-9.934 0zM6.288 24.79c.282-3.437 3.927-5.981 8.712-5.981s8.43 2.544 8.712 5.981c-2.32 2.067-5.367 3.335-8.712 3.335-3.345 0-6.391-1.268-8.712-3.335z" fill="#515151" fill-rule="nonzero"/></svg>