<?xml version="1.0" standalone="no"?>
<!DOCTYPE svg PUBLIC "-//W3C//DTD SVG 20010904//EN"
 "http://www.w3.org/TR/2001/REC-SVG-20010904/DTD/svg10.dtd">
<svg version="1.0" xmlns="http://www.w3.org/2000/svg"
 width="2048.000000pt" height="2048.000000pt" viewBox="0 0 2048.000000 2048.000000"
 preserveAspectRatio="xMidYMid meet">
<metadata>
Created by potrace 1.14, written by Peter Selinger 2001-2017
</metadata>
<g transform="translate(0.000000,2048.000000) scale(0.100000,-0.100000)"
fill="#000000" stroke="none">
<path d="M9798 20475 c-3 -3 -46 -8 -94 -10 -141 -6 -392 -23 -444 -29 -19 -3
-70 -8 -112 -11 -43 -4 -92 -8 -110 -11 -18 -2 -55 -6 -83 -9 -50 -5 -259 -33
-305 -40 -14 -2 -45 -6 -70 -10 -25 -3 -56 -8 -70 -10 -48 -9 -95 -16 -127
-21 -18 -2 -53 -8 -78 -14 -25 -6 -60 -12 -78 -15 -17 -2 -64 -11 -102 -19
-39 -8 -82 -17 -95 -20 -113 -21 -238 -50 -252 -57 -10 -6 -18 -8 -18 -5 0 3
-15 0 -32 -5 -18 -5 -49 -12 -68 -15 -19 -3 -38 -8 -42 -11 -5 -2 -17 -6 -27
-8 -11 -2 -55 -13 -98 -26 -43 -12 -82 -22 -88 -23 -5 -1 -37 -10 -70 -20 -33
-9 -85 -24 -115 -32 -30 -9 -62 -19 -70 -22 -8 -3 -19 -6 -25 -7 -24 -6 -151
-48 -160 -54 -5 -3 -17 -7 -26 -8 -9 -1 -29 -8 -45 -14 -16 -7 -37 -14 -47
-16 -10 -1 -55 -17 -100 -34 -45 -17 -122 -46 -172 -64 -49 -19 -103 -40 -120
-46 -16 -7 -32 -13 -35 -14 -7 -3 -32 -13 -165 -68 -66 -27 -122 -52 -125 -56
-3 -3 -12 -7 -21 -9 -9 -1 -48 -18 -88 -37 -39 -19 -74 -35 -76 -35 -10 0
-368 -178 -465 -230 -201 -110 -228 -124 -319 -179 -52 -31 -114 -67 -137 -81
-194 -113 -669 -430 -701 -467 -6 -8 -14 -14 -17 -13 -7 1 -198 -142 -230
-172 -11 -10 -23 -18 -27 -18 -5 0 -16 -8 -26 -18 -10 -10 -65 -56 -123 -102
-91 -73 -295 -244 -310 -260 -3 -3 -45 -41 -95 -85 -49 -44 -110 -98 -135
-120 -76 -69 -571 -565 -660 -663 -129 -141 -130 -143 -200 -221 -81 -92 -88
-100 -125 -146 -16 -20 -35 -42 -40 -49 -9 -9 -127 -152 -178 -216 -33 -40
-224 -290 -237 -310 -8 -12 -19 -28 -25 -34 -5 -6 -20 -25 -31 -42 -150 -211
-192 -272 -195 -280 -2 -5 -47 -74 -100 -154 -52 -80 -115 -179 -140 -220 -24
-41 -47 -76 -51 -78 -5 -2 -8 -7 -8 -12 0 -5 -29 -58 -65 -119 -36 -60 -65
-114 -65 -120 0 -6 -5 -11 -11 -11 -5 0 -8 -4 -4 -9 3 -5 1 -12 -4 -16 -5 -3
-16 -18 -24 -33 -8 -15 -43 -83 -79 -152 -106 -203 -122 -235 -123 -240 -1 -3
-26 -57 -57 -120 -30 -63 -70 -149 -88 -190 -18 -41 -42 -95 -53 -120 -11 -25
-22 -49 -23 -55 -1 -5 -23 -59 -48 -119 -26 -61 -50 -123 -53 -138 -3 -15 -9
-28 -14 -28 -5 0 -9 -6 -9 -14 0 -8 -5 -27 -11 -43 -6 -15 -10 -29 -10 -31 1
-1 -6 -16 -14 -32 -9 -17 -13 -30 -9 -30 4 0 2 -6 -4 -12 -18 -22 -163 -467
-223 -683 -30 -109 -98 -377 -104 -410 -3 -16 -10 -47 -16 -68 -6 -21 -12 -50
-14 -65 -2 -15 -8 -42 -14 -59 -5 -18 -8 -33 -6 -33 3 0 1 -10 -4 -23 -5 -12
-12 -44 -15 -71 -4 -27 -9 -53 -11 -57 -3 -4 -7 -24 -11 -45 -3 -22 -10 -58
-15 -82 -5 -24 -11 -60 -14 -80 -3 -20 -7 -50 -10 -67 -29 -183 -46 -298 -50
-335 -3 -25 -7 -56 -10 -70 -3 -13 -7 -52 -10 -85 -3 -33 -7 -76 -10 -95 -2
-19 -7 -62 -10 -95 -3 -33 -8 -80 -10 -105 -3 -25 -7 -76 -10 -115 -4 -70 -14
-192 -23 -315 -7 -93 -7 -1072 0 -1155 3 -38 9 -115 13 -170 7 -116 13 -194
19 -250 3 -22 7 -74 10 -115 4 -42 8 -86 11 -99 2 -13 7 -51 10 -85 3 -33 7
-74 11 -91 3 -16 7 -47 9 -70 5 -53 13 -111 22 -160 3 -22 8 -49 9 -60 8 -57
15 -103 21 -130 7 -31 8 -40 17 -92 3 -17 10 -60 16 -95 7 -35 14 -74 17 -88
2 -14 9 -45 14 -70 6 -25 13 -56 15 -70 2 -14 7 -37 10 -52 3 -15 5 -30 5 -33
0 -2 5 -19 10 -37 6 -18 12 -45 15 -59 3 -15 23 -96 45 -180 21 -85 41 -163
44 -173 2 -10 21 -76 41 -145 20 -69 37 -130 38 -136 1 -5 4 -14 8 -20 3 -5 9
-26 13 -45 4 -19 10 -39 13 -45 4 -5 7 -14 8 -20 4 -27 136 -406 164 -470 4
-11 29 -74 55 -140 26 -66 52 -133 60 -150 7 -16 25 -59 40 -95 15 -36 43 -98
61 -138 19 -41 34 -76 34 -79 0 -8 242 -497 249 -503 3 -3 18 -27 32 -55 42
-81 100 -186 141 -254 21 -34 38 -65 38 -67 0 -3 41 -70 88 -144 9 -14 16 -28
15 -31 -1 -4 7 -15 17 -24 11 -10 20 -22 20 -27 0 -5 9 -21 19 -36 10 -15 74
-110 141 -212 68 -102 127 -186 131 -188 5 -2 9 -10 9 -18 0 -8 3 -14 8 -14 4
-1 23 -25 42 -55 19 -30 38 -55 43 -55 4 0 7 -4 7 -10 0 -8 246 -336 270 -360
3 -3 25 -30 50 -60 48 -60 179 -218 195 -236 33 -37 117 -133 135 -154 12 -14
58 -65 103 -114 259 -282 536 -555 832 -823 79 -71 101 -90 147 -127 12 -11
53 -46 89 -78 37 -32 72 -58 78 -58 6 0 11 -4 11 -8 0 -9 207 -175 375 -301
61 -45 117 -88 125 -94 9 -7 38 -28 65 -46 28 -19 52 -37 55 -40 3 -4 12 -10
21 -16 9 -5 105 -70 213 -142 109 -73 199 -133 202 -133 2 0 38 -22 80 -50 41
-27 77 -50 79 -50 3 0 60 -33 127 -73 68 -40 130 -76 138 -80 8 -4 38 -20 65
-35 135 -75 287 -156 295 -157 3 -1 30 -14 60 -30 30 -16 58 -28 62 -27 3 1
12 -5 18 -13 7 -8 20 -15 29 -15 9 0 21 -4 27 -9 7 -7 161 -79 289 -136 17 -7
52 -23 80 -35 183 -82 760 -297 870 -324 53 -13 102 -30 112 -38 7 -6 13 -8
13 -4 0 3 12 1 28 -5 26 -10 37 -13 82 -23 11 -3 24 -7 28 -10 5 -3 19 -7 33
-10 13 -3 41 -10 62 -16 126 -34 119 -33 207 -55 68 -17 127 -31 170 -41 14
-3 43 -10 65 -16 22 -5 49 -12 60 -13 11 -2 85 -17 165 -34 141 -29 194 -40
235 -46 20 -3 65 -11 115 -20 28 -5 65 -11 125 -20 23 -3 51 -7 64 -10 13 -2
51 -7 84 -10 33 -3 63 -7 66 -9 6 -3 94 -14 166 -21 17 -1 55 -6 85 -9 30 -4
75 -8 100 -11 156 -16 132 -14 383 -31 54 -3 128 -9 165 -12 89 -7 1005 -8
1107 0 44 3 123 9 175 13 52 4 118 8 145 11 226 17 279 22 315 29 14 3 50 7
80 9 30 3 71 7 90 10 19 3 55 8 80 11 25 3 56 7 70 9 14 3 61 10 105 16 116
17 137 20 168 26 16 3 38 7 50 9 12 1 38 6 57 9 19 4 60 11 90 16 64 12 79 15
140 29 25 5 56 12 70 15 118 23 215 44 215 46 0 2 13 5 55 13 14 3 72 17 130
32 58 15 114 29 124 31 10 2 33 8 51 14 18 6 41 12 51 15 25 5 196 56 304 91
47 14 106 32 133 40 26 7 52 16 58 20 6 3 79 30 162 59 140 49 335 123 382
145 11 5 65 28 120 50 237 98 677 312 905 440 120 67 452 262 465 273 6 4 39
27 75 49 96 61 204 132 210 138 3 3 44 31 91 63 48 31 117 80 155 107 38 28
80 58 93 68 45 31 326 245 331 252 3 3 25 21 50 40 25 19 52 41 61 49 9 9 31
27 49 41 17 14 42 34 54 45 13 11 47 40 77 65 390 329 869 803 1220 1210 41
47 76 87 79 90 3 3 25 30 50 60 25 30 53 64 62 75 113 134 448 578 448 594 0
5 4 11 8 13 12 4 202 286 202 298 0 5 4 10 9 10 5 0 14 14 21 30 7 17 16 30
21 30 4 0 11 10 15 23 4 12 10 24 13 27 6 4 44 65 96 152 6 9 22 36 36 60 189
318 359 645 527 1018 38 84 149 354 187 455 52 136 73 194 75 203 2 4 7 18 12
32 5 14 11 32 13 40 4 17 21 67 41 120 23 63 94 295 94 308 0 7 4 20 9 30 8
14 34 104 46 157 1 6 5 17 8 25 3 8 19 74 37 145 17 72 35 144 41 162 5 17 12
44 14 60 3 15 9 46 14 68 29 131 41 190 45 218 2 18 9 51 16 75 6 24 13 58 15
75 2 18 6 41 8 52 3 11 8 42 11 69 4 27 9 52 11 56 2 3 6 32 9 64 4 32 8 61
10 65 2 3 7 31 11 61 3 30 8 68 11 84 3 15 7 51 10 80 3 28 7 65 9 81 2 17 6
50 9 75 3 25 8 65 11 90 12 106 27 289 40 490 4 58 9 143 13 190 8 125 14 892
6 910 -3 8 -7 51 -9 95 -4 106 -16 301 -20 345 -2 19 -6 71 -9 115 -4 44 -8
98 -11 120 -5 43 -15 135 -21 200 -2 22 -5 50 -8 62 -3 12 -8 55 -11 95 -3 39
-8 75 -10 78 -2 4 -7 31 -10 61 -3 30 -12 92 -20 139 -8 47 -16 101 -19 120
-9 55 -16 93 -22 120 -3 14 -8 39 -10 55 -2 17 -8 50 -14 75 -5 25 -12 56 -14
70 -12 61 -17 86 -22 102 -3 10 -7 30 -10 45 -8 44 -51 230 -78 333 -54 209
-75 286 -84 310 -5 14 -10 28 -11 32 -1 4 -3 13 -6 20 -2 7 -18 60 -35 118
-17 58 -40 130 -51 160 -11 30 -21 60 -23 65 -5 22 -59 181 -65 190 -3 6 -6
17 -8 25 -1 8 -6 23 -12 35 -5 11 -28 67 -50 125 -22 58 -45 119 -52 135 -7
17 -13 32 -14 35 -1 3 -9 22 -18 44 -9 21 -17 40 -17 42 0 2 -16 38 -35 80
-19 41 -35 78 -35 80 0 10 -98 216 -202 424 -112 225 -286 543 -300 548 -4 2
-8 8 -8 13 0 11 -103 184 -169 283 -27 41 -50 78 -52 82 -4 10 -138 212 -151
229 -5 6 -30 42 -57 80 -60 84 -133 186 -144 200 -4 6 -33 44 -64 85 -31 41
-63 81 -70 88 -7 7 -13 17 -13 20 0 4 -10 18 -23 32 -12 14 -38 45 -57 70 -50
64 -48 61 -171 210 -62 74 -115 137 -118 140 -3 3 -35 39 -71 80 -36 41 -74
84 -85 96 -11 12 -63 68 -115 125 -182 198 -522 532 -755 740 -33 30 -74 68
-92 84 -18 17 -39 35 -46 40 -6 6 -44 37 -82 70 -109 92 -164 138 -235 194
-36 28 -74 59 -85 68 -10 9 -85 66 -165 126 -80 60 -152 114 -160 121 -13 10
-77 54 -190 132 -19 13 -39 27 -45 31 -39 30 -195 132 -195 127 0 -3 -7 1 -15
8 -30 27 -44 38 -50 38 -3 0 -32 17 -63 38 -32 20 -66 42 -77 49 -11 6 -57 35
-103 62 -46 28 -87 51 -92 51 -4 0 -12 6 -18 13 -6 6 -39 27 -74 45 -35 19
-77 42 -93 51 -95 56 -593 309 -620 316 -5 1 -37 15 -70 30 -114 53 -186 85
-191 85 -2 0 -23 9 -47 19 -65 30 -270 111 -412 163 -106 39 -448 153 -505
169 -25 7 -47 13 -50 14 -3 1 -25 8 -50 15 -25 7 -48 14 -52 16 -5 1 -9 2 -10
4 -2 1 -10 3 -18 5 -8 2 -51 13 -95 25 -44 12 -125 33 -180 46 -55 13 -116 28
-135 34 -30 8 -145 34 -205 46 -11 2 -51 11 -90 19 -38 9 -83 18 -100 20 -16
3 -43 8 -60 12 -16 3 -39 8 -50 9 -19 2 -38 6 -110 19 -51 9 -94 16 -128 20
-17 3 -43 7 -56 10 -13 2 -49 7 -80 10 -31 4 -63 8 -71 10 -8 3 -42 7 -74 11
-33 3 -69 8 -80 10 -12 2 -46 6 -76 9 -30 3 -71 7 -90 10 -50 7 -150 16 -330
30 -25 2 -99 7 -165 11 -66 3 -147 9 -180 11 -91 8 -950 14 -957 8z"/>
</g>
</svg>
